<svg width="250" height="250" viewBox="0 0 250 250" fill="none" xmlns="http://www.w3.org/2000/svg">
<rect width="250" height="250" fill="#60B5FF"/>
<path d="M136.964 141.273H156.424V191.131C156.4 195.866 155.205 200.032 152.837 203.631C150.494 207.205 147.25 209.999 143.107 212.011C138.988 214 134.241 214.994 128.867 214.994C124.203 214.994 119.942 214.189 116.083 212.58C112.224 210.946 109.147 208.389 106.85 204.909C104.554 201.405 103.417 196.86 103.441 191.273H123.185C123.256 193.096 123.564 194.634 124.109 195.889C124.677 197.144 125.458 198.091 126.452 198.73C127.47 199.346 128.701 199.653 130.146 199.653C131.613 199.653 132.844 199.334 133.839 198.695C134.857 198.055 135.626 197.108 136.147 195.854C136.668 194.575 136.94 193.001 136.964 191.131V141.273ZM204.986 164C204.796 161.633 203.909 159.786 202.322 158.46C200.76 157.134 198.381 156.472 195.185 156.472C193.149 156.472 191.48 156.72 190.178 157.217C188.899 157.691 187.952 158.342 187.337 159.17C186.721 159.999 186.402 160.946 186.378 162.011C186.33 162.887 186.484 163.68 186.839 164.391C187.218 165.077 187.81 165.705 188.615 166.273C189.42 166.817 190.45 167.314 191.705 167.764C192.959 168.214 194.451 168.616 196.179 168.972L202.145 170.25C206.17 171.102 209.614 172.227 212.479 173.624C215.343 175.02 217.687 176.666 219.51 178.56C221.333 180.43 222.67 182.537 223.523 184.881C224.399 187.224 224.848 189.781 224.872 192.551C224.848 197.333 223.653 201.382 221.286 204.696C218.918 208.01 215.533 210.532 211.129 212.26C206.75 213.988 201.482 214.852 195.327 214.852C189.006 214.852 183.49 213.917 178.778 212.047C174.091 210.177 170.445 207.3 167.841 203.418C165.26 199.511 163.958 194.516 163.935 188.432H182.685C182.803 190.657 183.359 192.527 184.354 194.043C185.348 195.558 186.745 196.706 188.544 197.487C190.367 198.268 192.533 198.659 195.043 198.659C197.15 198.659 198.913 198.399 200.334 197.878C201.754 197.357 202.831 196.635 203.565 195.712C204.299 194.788 204.678 193.735 204.702 192.551C204.678 191.438 204.311 190.468 203.601 189.639C202.914 188.787 201.778 188.029 200.192 187.366C198.606 186.68 196.463 186.041 193.764 185.449L186.52 183.886C180.08 182.49 175.002 180.158 171.286 176.891C167.592 173.6 165.758 169.114 165.781 163.432C165.758 158.815 166.989 154.779 169.474 151.322C171.984 147.842 175.452 145.132 179.879 143.19C184.33 141.249 189.432 140.278 195.185 140.278C201.056 140.278 206.134 141.261 210.419 143.226C214.704 145.191 218.007 147.961 220.327 151.536C222.67 155.087 223.854 159.241 223.878 164H204.986Z" fill="white"/>
</svg>
